<svg version="1.2" xmlns="http://www.w3.org/2000/svg" viewBox="0 0 133 40" width="133" height="40">
	<title>header-logo2-svg</title>
	<style>
		.s0 { display: none;fill: #5bbb7b } 
		.s1 { display: none;fill: #222222 } 
		.s2 { fill: #000000 } 
	</style>
	<path id="Layer" fill-rule="evenodd" class="s0" d="m0 15c0-8.3 6.7-15 15-15h10c8.3 0 15 6.7 15 15v10c0 8.3-6.7 15-15 15h-10c-8.3 0-15-6.7-15-15zm18.8-6c-2.1 0.2-3.9 1.1-5.3 2.5-1.5 1.6-2.5 3.7-2.5 6.1v12.7h3.6v-10.9h5.9v-3.6h-5.6q0.4-1 1.2-1.8c0.7-0.7 1.6-1.2 2.7-1.4zm1.7 0v3.7c2.4 0.3 4.2 2.4 4.2 4.8 0 1.4-0.5 2.8-1.5 3.7-0.8 0.8-2 1.4-3.2 1.5v-1.5h-3.6v9.2h3.6v-4.1q1.2-0.1 2.4-0.5-0.1 0.1-0.1 0.1l2.5 4.5h4.2l-3.6-6.3q-0.1 0.1-0.1 0.1 0.2-0.2 0.5-0.4c1.5-1.6 2.5-3.8 2.5-6.2 0-2.3-1-4.5-2.5-6.1-1.4-1.3-3.2-2.3-5.3-2.5zm4.8 15.2q0 0 0 0 0 0 0 0z"/>
	<path id="Layer" fill-rule="evenodd" class="s1" d="m51.6 28v-16.8h10.9v2.5h-7.8v4.7h6.3v2.4h-6.3v7.2zm13.2 0v-11.9h2.7l0.3 2.2q0.6-1.1 1.7-1.8 1.2-0.7 2.7-0.7v3.2h-0.9q-1 0-1.8 0.4-0.8 0.3-1.2 1-0.5 0.8-0.5 2.2v5.4zm15.1 0.3q-1.8 0-3.2-0.8-1.4-0.7-2.2-2.1-0.8-1.4-0.8-3.3 0-1.8 0.8-3.2 0.8-1.5 2.2-2.3 1.4-0.8 3.2-0.8 1.8 0 3.1 0.8 1.4 0.7 2.1 2.1 0.8 1.3 0.8 2.9 0 0.3 0 0.6 0 0.3-0.1 0.6h-9q0.1 1.4 1 2.2 0.8 0.8 2.1 0.8 0.9 0 1.5-0.4 0.7-0.5 1-1.1h3.1q-0.3 1.1-1.1 2-0.8 0.9-1.9 1.5-1.1 0.5-2.6 0.5zm0-10q-1.1 0-2 0.7-0.8 0.6-1.1 1.9h6q-0.1-1.2-0.9-1.9-0.8-0.7-2-0.7zm14.4 10q-1.8 0-3.2-0.8-1.4-0.7-2.2-2.1-0.8-1.4-0.8-3.3 0-1.8 0.8-3.2 0.7-1.5 2.1-2.3 1.4-0.8 3.3-0.8 1.7 0 3.1 0.8 1.3 0.7 2.1 2.1 0.7 1.3 0.7 2.9 0 0.3 0 0.6 0 0.3 0 0.6h-9.1q0.1 1.4 1 2.2 0.9 0.8 2.1 0.8 1 0 1.6-0.4 0.6-0.5 1-1.1h3.1q-0.4 1.1-1.2 2-0.7 0.9-1.9 1.5-1.1 0.5-2.5 0.5zm0-10q-1.1 0-2 0.7-0.9 0.6-1.1 1.9h5.9q-0.1-1.2-0.9-1.9-0.7-0.7-1.9-0.7zm10.2-4.1q-0.9 0-1.4-0.5-0.5-0.5-0.5-1.2 0-0.8 0.5-1.3 0.5-0.5 1.4-0.5 0.8 0 1.3 0.5 0.6 0.5 0.6 1.3 0 0.7-0.6 1.2-0.5 0.5-1.3 0.5zm-1.6 13.8v-11.9h3.1v11.9zm12 0.3q-1.7 0-3.1-0.8-1.4-0.8-2.2-2.2-0.8-1.4-0.8-3.3 0-1.8 0.8-3.2 0.8-1.4 2.2-2.2 1.4-0.8 3.1-0.8 1.7 0 3.1 0.8 1.4 0.8 2.2 2.2 0.8 1.4 0.8 3.2 0 1.9-0.8 3.3-0.8 1.4-2.2 2.2-1.4 0.8-3.1 0.8zm0-2.7q1.2 0 2.1-0.9 0.9-0.9 0.9-2.7 0-1.7-0.9-2.6-0.9-0.9-2.1-0.9-1.2 0-2.1 0.9-0.9 0.9-0.9 2.6 0 1.8 0.9 2.7 0.9 0.9 2.1 0.9z"/>
	<path id="Layer" class="s0" d="m125 28.2q-0.8 0-1.3-0.6-0.6-0.5-0.6-1.2 0-0.8 0.6-1.3 0.5-0.6 1.3-0.6 0.9 0 1.4 0.6 0.6 0.5 0.6 1.3 0 0.7-0.6 1.2-0.5 0.6-1.4 0.6z"/>
	<path id="SENDYOURDREAM" class="s2" aria-label="SENDYOURDREAM"  d="m5.2 22.8q0.5 0.6 1.3 0.9 0.7 0.4 1.7 0.4 0.9 0 1.5-0.5 0.7-0.5 0.7-1.4 0-0.8-0.6-1.3-0.5-0.5-1.3-0.8-0.8-0.3-1.7-0.5-0.8-0.3-1.3-1-0.6-0.7-0.6-1.7 0-1.5 1-2.3 0.9-0.7 2.3-0.7 1.8 0 3 0.7l-0.7 1q-0.9-0.5-2.4-0.5-0.7 0-1.3 0.4-0.6 0.4-0.6 1.3 0 1 1.1 1.5 0.5 0.3 1.1 0.4 0.5 0.2 1.1 0.5 0.6 0.2 1.1 0.5 1.1 0.8 1.1 2.4 0 1.6-1 2.4-1 0.8-2.6 0.8-2.1 0-3.6-1.5zm14.4 2.2h-6.2v-10.9h5.9v1.1h-4.6v3.7h3.8v1.2h-3.8v3.7h4.9zm3.4 0h-1.3v-10.9h1.5l5.3 8.9v-8.9h1.2v10.9h-1.4l-5.3-8.8zm13.5 0h-3.9v-10.9h3.9q2.3 0 3.5 1.5 1.1 1.5 1.1 3.9 0 2.4-1.1 3.9-1.2 1.6-3.5 1.6zm0-9.8h-2.6v8.6h2.6q1.7 0 2.5-1.2 0.8-1.2 0.8-3.1 0-1.9-0.8-3.1-0.8-1.2-2.5-1.2zm10 9.8h-1.3v-3.8l-3.6-7.1h1.4l2.8 5.8 2.8-5.8h1.4l-3.5 7.1zm5.5-1.3q-1.2-1.6-1.2-4.1 0-2.6 1.2-4.2 1.1-1.5 3.4-1.5 1.6 0 2.6 0.7 1.1 0.8 1.6 2.1 0.4 1.2 0.4 2.9 0 1.6-0.4 2.8-0.5 1.3-1.6 2.1-1 0.8-2.6 0.8-2.3 0-3.4-1.6zm0.9-7.4q-0.8 1.2-0.8 3.3 0 2 0.8 3.2 0.9 1.3 2.5 1.3 1.7 0 2.5-1.3 0.8-1.2 0.8-3.2 0-2-0.8-3.3-0.8-1.3-2.5-1.3-1.6 0-2.5 1.3zm9.1 4.7v-6.9h1.3v6.9q0 1.4 0.7 2.2 0.7 0.9 2 0.9 1.4 0 2.1-0.9 0.7-0.8 0.7-2.2v-6.9h1.3v6.9q0 1.9-1 3.1-1 1.2-3.1 1.2-2 0-3-1.2-1-1.2-1-3.1zm12 4h-1.3v-10.9h3.7q1.3 0 2.3 0.9 0.9 0.9 0.9 2.2 0 1-0.5 1.7-0.5 0.8-1.3 1.2 0.5 0.2 0.7 0.7l1.5 4.1-1.2 0.4-1.6-4.2q-0.2-0.6-0.5-0.7-0.1 0-0.3-0.1h-2.4zm2.4-9.7h-2.4v4h2.4q0.8 0 1.3-0.6 0.6-0.6 0.6-1.4 0-0.8-0.6-1.4-0.5-0.6-1.3-0.6zm9.5 9.7h-3.9v-10.8h3.9q2.3 0 3.4 1.5 1.2 1.5 1.2 3.9 0 2.4-1.2 3.9-1.1 1.5-3.4 1.5zm0-9.7h-2.6v8.6h2.6q1.6 0 2.5-1.2 0.8-1.2 0.8-3.1 0-1.9-0.8-3.1-0.9-1.2-2.5-1.2zm7.8 9.7h-1.3v-10.8h3.7q1.3 0 2.2 0.9 0.9 0.9 0.9 2.2 0 0.9-0.5 1.7-0.4 0.7-1.2 1.1 0.4 0.2 0.7 0.8l1.5 4-1.2 0.4-1.6-4.2q-0.2-0.6-0.5-0.6-0.1-0.1-0.3-0.1h-2.4zm2.4-9.7h-2.4v3.9h2.4q0.7 0 1.3-0.6 0.6-0.6 0.6-1.4 0-0.8-0.6-1.3-0.6-0.6-1.3-0.6zm11.6 9.7h-6.2v-10.9h5.9v1.2h-4.7v3.7h3.8v1.1h-3.8v3.7h5zm4.3-10.8h1.6l3.7 10.8h-1.4l-1-3.2h-4.1l-1.1 3.2h-1.3zm2.4 6.6l-1.6-5.2-1.7 5.2zm5.3 4.3h-1.3l0.4-10.9h1.5l3.3 7.7 3.4-7.7h1.5l0.4 10.9h-1.3l-0.3-8.5-3 6.8h-1.3l-3-6.8z"/>
</svg>